<?xml version="1.0" encoding="UTF-8" standalone="no"?>
<!-- Created with Inkscape (http://www.inkscape.org/) -->

<svg
   xmlns:dc="http://purl.org/dc/elements/1.1/"
   xmlns:cc="http://creativecommons.org/ns#"
   xmlns:rdf="http://www.w3.org/1999/02/22-rdf-syntax-ns#"
   xmlns:svg="http://www.w3.org/2000/svg"
   xmlns="http://www.w3.org/2000/svg"
   xmlns:xlink="http://www.w3.org/1999/xlink"
   xmlns:sodipodi="http://sodipodi.sourceforge.net/DTD/sodipodi-0.dtd"
   xmlns:inkscape="http://www.inkscape.org/namespaces/inkscape"
   width="744.09448819"
   height="1052.3622047"
   id="svg2"
   version="1.1"
   inkscape:version="0.48.1 r9760"
   sodipodi:docname="sirppi_et_vasara.svg">
  <defs
     id="defs4" />
  <sodipodi:namedview
     id="base"
     pagecolor="#ffffff"
     bordercolor="#666666"
     borderopacity="1.0"
     inkscape:pageopacity="0.0"
     inkscape:pageshadow="2"
     inkscape:zoom="0.7"
     inkscape:cx="549.6769"
     inkscape:cy="747.50771"
     inkscape:document-units="px"
     inkscape:current-layer="layer1"
     showgrid="false"
     inkscape:window-width="1278"
     inkscape:window-height="1006"
     inkscape:window-x="40"
     inkscape:window-y="0"
     inkscape:window-maximized="0" />
  <metadata
     id="metadata7">
    <rdf:RDF>
      <cc:Work
         rdf:about="">
        <dc:format>image/svg+xml</dc:format>
        <dc:type
           rdf:resource="http://purl.org/dc/dcmitype/StillImage" />
        <dc:title />
      </cc:Work>
    </rdf:RDF>
  </metadata>
  <g
     inkscape:label="surrounds"
     inkscape:groupmode="layer"
     id="layer1"
     style="display:inline">
    <path
       style="fill:#000000;stroke:#000000;stroke-width:5;stroke-miterlimit:17.29999923999999822;stroke-dasharray:none;fill-opacity:1"
       d="M 328.125 20.4375 C 158.37305 22.584503 21.4375 160.67687 21.4375 330.6875 C 21.4375 502.03679 160.55349 640.9375 332.15625 640.9375 C 503.75901 640.9375 642.84375 502.03679 642.84375 330.6875 C 642.84375 159.33821 503.75901 20.4375 332.15625 20.4375 C 330.8156 20.4375 329.46163 20.420594 328.125 20.4375 z M 331.78125 34.625 C 495.72767 34.625 628.65625 167.58445 628.65625 331.59375 C 628.65625 495.60305 495.72767 628.5625 331.78125 628.5625 C 167.83483 628.5625 34.9375 495.60305 34.9375 331.59375 C 34.9375 167.58445 167.83483 34.625 331.78125 34.625 z "
       id="path3002" />
    <path
       sodipodi:type="arc"
       style="fill:none;stroke:#000000;stroke-width:6.92973232;stroke-miterlimit:17.29999924;stroke-dasharray:none"
       id="path3002-7"
       sodipodi:cx="318.57144"
       sodipodi:cy="325.21933"
       sodipodi:rx="300"
       sodipodi:ry="281.42856"
       d="m 618.57144,325.21933 a 300,281.42856 0 1 1 -599.999998,0 300,281.42856 0 1 1 599.999998,0 z"
       transform="matrix(0.69998632,0,0,0.74617834,108.28107,88.152966)" />
    <path
       transform="matrix(0.79827768,0,0,0.85095593,76.968029,54.077368)"
       d="m 618.57144,325.21933 a 300,281.42856 0 1 1 -599.999998,0 300,281.42856 0 1 1 599.999998,0 z"
       sodipodi:ry="281.42856"
       sodipodi:rx="300"
       sodipodi:cy="325.21933"
       sodipodi:cx="318.57144"
       id="path3029"
       style="fill:none;stroke:none;stroke-width:2.24023485000000022;stroke-miterlimit:17.29999923999999822;stroke-dasharray:none"
       sodipodi:type="arc" />
    <text
       xml:space="preserve"
       style="font-size:64px;font-style:normal;font-variant:normal;font-weight:900;font-stretch:normal;line-height:125%;letter-spacing:0px;word-spacing:0px;fill:#000000;fill-opacity:1;stroke:none;font-family:VKB KonQa;-inkscape-font-specification:VKB KonQa Heavy"
       id="text3806"
       sodipodi:linespacing="125%"
       transform="matrix(-0.80774329,-0.58953438,0.58953438,-0.80774329,406.64167,800.67081)"><textPath
         xlink:href="#path3029"
         id="textPath3822"><tspan
   id="tspan3808">Helsinki Hacklab</tspan></textPath></text>
    <text
       xml:space="preserve"
       style="font-size:64px;font-style:normal;font-variant:normal;font-weight:900;font-stretch:normal;line-height:125%;letter-spacing:0px;word-spacing:0px;fill:#000000;fill-opacity:1;stroke:none;font-family:VKB KonQa;-inkscape-font-specification:VKB KonQa Heavy"
       id="text3810"
       sodipodi:linespacing="125%"
       transform="matrix(0.72369437,-0.69012061,0.69012061,0.72369437,-134.29055,327.77527)"><textPath
         xlink:href="#path4954"
         id="textPath4957"><tspan
   id="tspan3812">Warkfest 2012</tspan></textPath></text>
    <path
       sodipodi:type="arc"
       style="fill:none;stroke:none;stroke-width:2.24023485000000022;stroke-miterlimit:17.29999923999999822;stroke-dasharray:none"
       id="path4954"
       sodipodi:cx="318.57144"
       sodipodi:cy="325.21933"
       sodipodi:rx="300"
       sodipodi:ry="281.42856"
       d="m 618.57144,325.21933 a 300,281.42856 0 1 1 -599.999998,0 300,281.42856 0 1 1 599.999998,0 z"
       transform="matrix(-0.89789366,0,0,0.95714555,617.31978,19.542455)" />
  </g>
  <g
     inkscape:groupmode="layer"
     id="layer2"
     inkscape:label="sickle"
     style="display:inline">
    <g
       id="g2994"
       style="fill:#000000;fill-opacity:1">
      <path
         sodipodi:nodetypes="csscsccc"
         inkscape:connector-curvature="0"
         id="path3025-7"
         d="m 313.20144,388.17365 c 29.01176,36.57198 102.67395,49.80999 136.94034,-15.04257 16.3764,-30.99398 16.08611,-75.30938 -3.65402,-114.54468 -18.85383,-37.47369 -54.01982,-73.97476 -115.13512,-93.63066 106.21151,83.07645 103.36565,159.67785 89.8809,192.11497 -16.5971,39.92377 -74.95564,50.32592 -101.22239,18.49152 l -6.56159,2.39137 z"
         style="fill:#000000;stroke:#000000;stroke-width:5;stroke-linecap:butt;stroke-linejoin:miter;stroke-miterlimit:4;stroke-opacity:1;stroke-dasharray:none;fill-opacity:1" />
      <path
         sodipodi:nodetypes="cssssssssssc"
         inkscape:connector-curvature="0"
         id="path3045"
         d="m 312.89475,388.18688 c -5.03654,12.58358 -12.63244,16.90588 -15.82257,19.89769 -3.0054,2.81856 -4.47448,3.93882 -8.67362,7.62897 -4.16689,3.66181 -5.90065,13.23281 -9.65959,28.85248 -4.15785,17.27729 -21.04976,34.13466 -35.03967,24.18053 -10.90669,-7.76034 -11.01314,-22.52639 -2.44653,-35.26508 8.56662,-12.73869 21.7657,-20.67212 28.20542,-23.57631 12.87945,-5.80838 5.75535,-28.71871 34.34519,-41.16372 5.36643,-2.33598 7.60772,-9.69115 8.70467,-7.90366 0.54848,0.89375 5.59067,3.57149 6.76427,6.64442 2.59147,6.78549 -5.88829,9.71138 -6.18817,11.07666 -1.21958,5.55228 -0.1894,9.62802 -0.1894,9.62802 z"
         style="fill:#000000;stroke:#000000;stroke-width:5;stroke-linecap:butt;stroke-linejoin:miter;stroke-miterlimit:4;stroke-opacity:1;stroke-dasharray:none;fill-opacity:1" />
      <path
         inkscape:connector-curvature="0"
         id="path3056"
         d="m 303.86651,368.61518 9.53332,9.40704"
         style="fill:#000000;stroke:#000000;stroke-width:5;stroke-linecap:butt;stroke-linejoin:miter;stroke-opacity:1;stroke-miterlimit:4;stroke-dasharray:none;fill-opacity:1" />
    </g>
  </g>
  <g
     inkscape:groupmode="layer"
     id="layer4"
     inkscape:label="hammer">
    <g
       id="g2999">
      <path
         sodipodi:nodetypes="cccsc"
         inkscape:connector-curvature="0"
         id="path3065"
         d="M 217.43534,324.79981 188.89853,299.29346 236.3757,236.664 c 0,0 2.94781,-12.7539 28.78934,-7.82868 20.84734,3.97336 29.7995,-0.37881 29.7995,-0.37881"
         style="fill:#000000;stroke:#000000;stroke-width:5;stroke-linecap:butt;stroke-linejoin:miter;stroke-opacity:1;stroke-miterlimit:4;stroke-dasharray:none;fill-opacity:1" />
      <path
         sodipodi:nodetypes="ccsccccccccc"
         inkscape:connector-curvature="0"
         d="m 261.2507,300.55615 114.67924,92.73008 c 0,0 4.24628,0.99767 14.4507,-3.9719 14.71374,-7.16561 9.57106,-6.48676 9.57106,-6.48676 L 275.64538,281.48952 m -57.95751,42.80521 77.1504,-95.83822 11.74303,19.82424 c -8.80752,7.63059 -25.78116,35.35513 -31.06219,32.95622 -31.61795,-14.91085 -14.26841,19.31917 -14.26841,19.31917 l -20.07678,28.03174 z"
         style="fill:none;stroke:#000000;stroke-width:5;stroke-linecap:butt;stroke-linejoin:miter;stroke-opacity:1;stroke-miterlimit:4;stroke-dasharray:none"
         id="path3073" />
      <path
         sodipodi:nodetypes="ccssccc"
         inkscape:connector-curvature="0"
         id="path3082"
         d="m 406.06864,416.8156 31.83249,27.93982 c 0,0 11.34596,12.84928 22.56781,7.7394 4.74438,-2.16035 10.76722,-10.51732 5.71646,-16.83077 -5.05076,-6.31345 -9.34391,-5.55584 -9.34391,-5.55584 l -28.223,-25.66697 c 0,0 -13.45848,11.77737 -22.54985,12.37436 z"
         style="fill:none;stroke:#000000;stroke-width:5;stroke-linecap:butt;stroke-linejoin:miter;stroke-opacity:1;stroke-miterlimit:4;stroke-dasharray:none" />
      <path
         sodipodi:nodetypes="cc"
         inkscape:connector-curvature="0"
         id="path3084"
         d="m 444.9188,450.74763 c -5.38496,-19.37858 12.12152,-20.86375 11.90737,-20.58077"
         style="fill:none;stroke:#000000;stroke-width:5;stroke-linecap:butt;stroke-linejoin:miter;stroke-opacity:1;stroke-miterlimit:4;stroke-dasharray:none" />
    </g>
  </g>
</svg>
