<?xml version="1.0" encoding="UTF-8" standalone="no"?>
<!-- Created with Inkscape (http://www.inkscape.org/) -->

<svg
   xmlns:dc="http://purl.org/dc/elements/1.1/"
   xmlns:cc="http://creativecommons.org/ns#"
   xmlns:rdf="http://www.w3.org/1999/02/22-rdf-syntax-ns#"
   xmlns:svg="http://www.w3.org/2000/svg"
   xmlns="http://www.w3.org/2000/svg"
   xmlns:sodipodi="http://sodipodi.sourceforge.net/DTD/sodipodi-0.dtd"
   xmlns:inkscape="http://www.inkscape.org/namespaces/inkscape"
   width="210mm"
   height="297mm"
   id="svg19466"
   version="1.1"
   inkscape:version="0.48.1 r9760"
   sodipodi:docname="hacklab_logo_properpaths.svg">
  <defs
     id="defs3"><marker
   refY="0"
   refX="0"
   style="overflow:visible"
   id="DistanceX-13"
   orient="auto">
  <path
     style="stroke:#000000;stroke-width:0.5"
     d="M 3,-3 -3,3 M 0,-5 0,5"
     id="path13402"
     inkscape:connector-curvature="0" />
</marker>
<marker
   refY="0"
   refX="0"
   style="overflow:visible"
   id="DistanceX-24"
   orient="auto">
  <path
     style="stroke:#000000;stroke-width:0.5"
     d="M 3,-3 -3,3 M 0,-5 0,5"
     id="path8616"
     inkscape:connector-curvature="0" />
</marker>
<marker
   refY="0"
   refX="0"
   style="overflow:visible"
   id="DistanceX-1"
   orient="auto">
  <path
     style="stroke:#000000;stroke-width:0.5"
     d="M 3,-3 -3,3 M 0,-5 0,5"
     id="path7149"
     inkscape:connector-curvature="0" />
</marker>
<marker
   refY="0"
   refX="0"
   style="overflow:visible"
   id="DistanceX-01"
   orient="auto">
  <path
     style="stroke:#000000;stroke-width:0.5"
     d="M 3,-3 -3,3 M 0,-5 0,5"
     id="path7046"
     inkscape:connector-curvature="0" />
</marker>
<marker
   refY="0"
   refX="0"
   style="overflow:visible"
   id="DistanceX-06"
   orient="auto">
  <path
     style="stroke:#000000;stroke-width:0.5"
     d="M 3,-3 -3,3 M 0,-5 0,5"
     id="path5514"
     inkscape:connector-curvature="0" />
</marker>
<marker
   refY="0"
   refX="0"
   style="overflow:visible"
   id="DistanceX-2"
   orient="auto">
  <path
     style="stroke:#000000;stroke-width:0.5"
     d="M 3,-3 -3,3 M 0,-5 0,5"
     id="path4622"
     inkscape:connector-curvature="0" />
</marker>
<marker
   refY="0"
   refX="0"
   style="overflow:visible"
   id="DistanceX-83"
   orient="auto">
  <path
     style="stroke:#000000;stroke-width:0.5"
     d="M 3,-3 -3,3 M 0,-5 0,5"
     id="path23702"
     inkscape:connector-curvature="0" />
</marker>
<marker
   refY="0"
   refX="0"
   style="overflow:visible"
   id="DistanceX-8"
   orient="auto">
  <path
     style="stroke:#000000;stroke-width:0.5"
     d="M 3,-3 -3,3 M 0,-5 0,5"
     id="path18026"
     inkscape:connector-curvature="0" />
</marker>
<marker
   refY="0"
   refX="0"
   style="overflow:visible"
   id="DistanceX-72"
   orient="auto">
  <path
     style="stroke:#000000;stroke-width:0.5"
     d="M 3,-3 -3,3 M 0,-5 0,5"
     id="path12350-9"
     inkscape:connector-curvature="0" />
</marker>
<inkscape:perspective
   sodipodi:type="inkscape:persp3d"
   inkscape:vp_x="0 : 526.18109 : 1"
   inkscape:vp_y="0 : 1000 : 0"
   inkscape:vp_z="744.09448 : 526.18109 : 1"
   inkscape:persp3d-origin="372.04724 : 350.78739 : 1"
   id="perspective10" />
<inkscape:perspective
   id="perspective3625"
   inkscape:persp3d-origin="0.5 : 0.33333333 : 1"
   inkscape:vp_z="1 : 0.5 : 1"
   inkscape:vp_y="0 : 1000 : 0"
   inkscape:vp_x="0 : 0.5 : 1"
   sodipodi:type="inkscape:persp3d" />
<inkscape:perspective
   id="perspective3672"
   inkscape:persp3d-origin="0.5 : 0.33333333 : 1"
   inkscape:vp_z="1 : 0.5 : 1"
   inkscape:vp_y="0 : 1000 : 0"
   inkscape:vp_x="0 : 0.5 : 1"
   sodipodi:type="inkscape:persp3d" />
<inkscape:perspective
   id="perspective3704"
   inkscape:persp3d-origin="0.5 : 0.33333333 : 1"
   inkscape:vp_z="1 : 0.5 : 1"
   inkscape:vp_y="0 : 1000 : 0"
   inkscape:vp_x="0 : 0.5 : 1"
   sodipodi:type="inkscape:persp3d" />
<inkscape:perspective
   id="perspective3704-9"
   inkscape:persp3d-origin="0.5 : 0.33333333 : 1"
   inkscape:vp_z="1 : 0.5 : 1"
   inkscape:vp_y="0 : 1000 : 0"
   inkscape:vp_x="0 : 0.5 : 1"
   sodipodi:type="inkscape:persp3d" />
<inkscape:perspective
   id="perspective3704-0"
   inkscape:persp3d-origin="0.5 : 0.33333333 : 1"
   inkscape:vp_z="1 : 0.5 : 1"
   inkscape:vp_y="0 : 1000 : 0"
   inkscape:vp_x="0 : 0.5 : 1"
   sodipodi:type="inkscape:persp3d" />
<inkscape:perspective
   id="perspective3704-5"
   inkscape:persp3d-origin="0.5 : 0.33333333 : 1"
   inkscape:vp_z="1 : 0.5 : 1"
   inkscape:vp_y="0 : 1000 : 0"
   inkscape:vp_x="0 : 0.5 : 1"
   sodipodi:type="inkscape:persp3d" />
<inkscape:perspective
   id="perspective3829"
   inkscape:persp3d-origin="0.5 : 0.33333333 : 1"
   inkscape:vp_z="1 : 0.5 : 1"
   inkscape:vp_y="0 : 1000 : 0"
   inkscape:vp_x="0 : 0.5 : 1"
   sodipodi:type="inkscape:persp3d" />
<inkscape:perspective
   id="perspective3861"
   inkscape:persp3d-origin="0.5 : 0.33333333 : 1"
   inkscape:vp_z="1 : 0.5 : 1"
   inkscape:vp_y="0 : 1000 : 0"
   inkscape:vp_x="0 : 0.5 : 1"
   sodipodi:type="inkscape:persp3d" />
<inkscape:perspective
   id="perspective3898"
   inkscape:persp3d-origin="0.5 : 0.33333333 : 1"
   inkscape:vp_z="1 : 0.5 : 1"
   inkscape:vp_y="0 : 1000 : 0"
   inkscape:vp_x="0 : 0.5 : 1"
   sodipodi:type="inkscape:persp3d" />
<inkscape:perspective
   id="perspective3926"
   inkscape:persp3d-origin="0.5 : 0.33333333 : 1"
   inkscape:vp_z="1 : 0.5 : 1"
   inkscape:vp_y="0 : 1000 : 0"
   inkscape:vp_x="0 : 0.5 : 1"
   sodipodi:type="inkscape:persp3d" />
<inkscape:perspective
   id="perspective3954"
   inkscape:persp3d-origin="0.5 : 0.33333333 : 1"
   inkscape:vp_z="1 : 0.5 : 1"
   inkscape:vp_y="0 : 1000 : 0"
   inkscape:vp_x="0 : 0.5 : 1"
   sodipodi:type="inkscape:persp3d" />
<inkscape:perspective
   id="perspective3982"
   inkscape:persp3d-origin="0.5 : 0.33333333 : 1"
   inkscape:vp_z="1 : 0.5 : 1"
   inkscape:vp_y="0 : 1000 : 0"
   inkscape:vp_x="0 : 0.5 : 1"
   sodipodi:type="inkscape:persp3d" />
<marker
   refY="0"
   refX="0"
   style="overflow:visible"
   id="DistanceX-4"
   orient="auto">
  <path
     style="stroke:#000000;stroke-width:0.5"
     d="M 3,-3 -3,3 M 0,-5 0,5"
     id="path12402"
     inkscape:connector-curvature="0" />
</marker>
<marker
   refY="0"
   refX="0"
   style="overflow:visible"
   id="DistanceX-70"
   orient="auto">
  <path
     style="stroke:#000000;stroke-width:0.5"
     d="M 3,-3 -3,3 M 0,-5 0,5"
     id="path11610"
     inkscape:connector-curvature="0" />
</marker>
<marker
   refY="0"
   refX="0"
   style="overflow:visible"
   id="DistanceX-35"
   orient="auto">
  <path
     style="stroke:#000000;stroke-width:0.5"
     d="M 3,-3 -3,3 M 0,-5 0,5"
     id="path24596"
     inkscape:connector-curvature="0" />
</marker>
<marker
   refY="0"
   refX="0"
   style="overflow:visible"
   id="DistanceX-6"
   orient="auto">
  <path
     style="stroke:#000000;stroke-width:0.5"
     d="M 3,-3 -3,3 M 0,-5 0,5"
     id="path13840"
     inkscape:connector-curvature="0" />
</marker>
<marker
   refY="0"
   refX="0"
   style="overflow:visible"
   id="DistanceX-08"
   orient="auto">
  <path
     style="stroke:#000000;stroke-width:0.5"
     d="M 3,-3 -3,3 M 0,-5 0,5"
     id="path4869"
     inkscape:connector-curvature="0" />
</marker>
<marker
   refY="0"
   refX="0"
   style="overflow:visible"
   id="DistanceX-7"
   orient="auto">
  <path
     style="stroke:#000000;stroke-width:0.5"
     d="M 3,-3 -3,3 M 0,-5 0,5"
     id="path5674"
     inkscape:connector-curvature="0" />
</marker>
<marker
   refY="0"
   refX="0"
   style="overflow:visible"
   id="DistanceX-31"
   orient="auto">
  <path
     style="stroke:#000000;stroke-width:0.5"
     d="M 3,-3 -3,3 M 0,-5 0,5"
     id="path5262"
     inkscape:connector-curvature="0" />
</marker>
<marker
   refY="0"
   refX="0"
   style="overflow:visible"
   id="DistanceX-0"
   orient="auto">
  <path
     inkscape:connector-curvature="0"
     style="stroke:#000000;stroke-width:0.5"
     d="M 3,-3 -3,3 M 0,-5 0,5"
     id="path3875" />
</marker>
<marker
   refY="0"
   refX="0"
   style="overflow:visible"
   id="DistanceX-3"
   orient="auto">
  <path
     inkscape:connector-curvature="0"
     style="stroke:#000000;stroke-width:0.5"
     d="M 3,-3 -3,3 M 0,-5 0,5"
     id="path5585" />
</marker>
<marker
   refY="0"
   refX="0"
   style="overflow:visible"
   id="DistanceX"
   orient="auto">
  <path
     inkscape:connector-curvature="0"
     style="stroke:#000000;stroke-width:0.5"
     d="M 3,-3 -3,3 M 0,-5 0,5"
     id="path3833" />
</marker>
<inkscape:perspective
   sodipodi:type="inkscape:persp3d"
   inkscape:vp_x="0 : 270.70999 : 1"
   inkscape:vp_y="0 : 1000 : 0"
   inkscape:vp_z="541.41998 : 270.70999 : 1"
   inkscape:persp3d-origin="270.70999 : 180.47333 : 1"
   id="perspective56159" />
<inkscape:perspective
   sodipodi:type="inkscape:persp3d"
   inkscape:vp_x="0 : 698.03125 : 1"
   inkscape:vp_y="0 : 1000 : 0"
   inkscape:vp_z="1396.0651 : 698.03125 : 1"
   inkscape:persp3d-origin="698.03253 : 465.35417 : 1"
   id="perspective46224" />
<inkscape:perspective
   sodipodi:type="inkscape:persp3d"
   inkscape:vp_x="0 : 338.38501 : 1"
   inkscape:vp_y="0 : 1000 : 0"
   inkscape:vp_z="676.77124 : 338.38501 : 1"
   inkscape:persp3d-origin="338.38562 : 225.59001 : 1"
   id="perspective37556-9" />

		
		
		
		
		
		
		
	
		
		
		
		
		
		
		
		
		
		
		
		
	
			
			
			
			
			
		
			
			
			
			
			
			
		
			
			
			
			
			
		
			
			
			
			
			
			
			
			
			
			
		<inkscape:perspective
   sodipodi:type="inkscape:persp3d"
   inkscape:vp_x="0 : 338.38501 : 1"
   inkscape:vp_y="0 : 1000 : 0"
   inkscape:vp_z="676.77124 : 338.38501 : 1"
   inkscape:persp3d-origin="338.38562 : 225.59001 : 1"
   id="perspective16301-9" />

		
		
		
		
		
		
		
	
		
		
		
		
		
		
		
		
		
		
		
		
	
			
			
			
			
			
		
			
			
			
			
			
			
		
			
			
			
			
			
		
			
			
			
			
			
			
			
			
			
			
		
		
		
		
		
		
		
		
	<inkscape:perspective
   sodipodi:type="inkscape:persp3d"
   inkscape:vp_x="0 : 270.7085 : 1"
   inkscape:vp_y="0 : 1000 : 0"
   inkscape:vp_z="541.41699 : 270.7085 : 1"
   inkscape:persp3d-origin="270.7085 : 180.47233 : 1"
   id="perspective12409-1" />
<inkscape:perspective
   sodipodi:type="inkscape:persp3d"
   inkscape:vp_x="0 : 0.5 : 1"
   inkscape:vp_y="0 : 1000 : 0"
   inkscape:vp_z="1 : 0.5 : 1"
   inkscape:persp3d-origin="0.5 : 0.33333333 : 1"
   id="perspective9337-7" />
<inkscape:perspective
   sodipodi:type="inkscape:persp3d"
   inkscape:vp_x="0 : 0.5 : 1"
   inkscape:vp_y="0 : 1000 : 0"
   inkscape:vp_z="1 : 0.5 : 1"
   inkscape:persp3d-origin="0.5 : 0.33333333 : 1"
   id="perspective8562-2" />

		
		
		
		
		
		
		
	
		
		
		
		
		
		
		
		
		
		
		
		
	
			
			
			
			
			
		
			
			
			
			
			
			
		
			
			
			
			
			
		
			
			
			
			
			
			
			
			
			
			
		<inkscape:perspective
   id="perspective3083-3"
   inkscape:persp3d-origin="338.38562 : 225.59001 : 1"
   inkscape:vp_z="676.77124 : 338.38501 : 1"
   inkscape:vp_y="0 : 1000 : 0"
   inkscape:vp_x="0 : 338.38501 : 1"
   sodipodi:type="inkscape:persp3d" />
<inkscape:perspective
   id="perspective23419-6"
   inkscape:persp3d-origin="270.7085 : 180.47233 : 1"
   inkscape:vp_z="541.41699 : 270.7085 : 1"
   inkscape:vp_y="0 : 1000 : 0"
   inkscape:vp_x="0 : 270.7085 : 1"
   sodipodi:type="inkscape:persp3d" />

		
		
		
		
		
		
		
	
		
		
		
		
		
		
		
		
		
		
		
		
	
			
			
			
			
			
		
			
			
			
			
			
			
		
			
			
			
			
			
		
			
			
			
			
			
			
			
			
			
			
		<inkscape:perspective
   id="perspective27913-5"
   inkscape:persp3d-origin="338.38562 : 225.59001 : 1"
   inkscape:vp_z="676.77124 : 338.38501 : 1"
   inkscape:vp_y="0 : 1000 : 0"
   inkscape:vp_x="0 : 338.38501 : 1"
   sodipodi:type="inkscape:persp3d" />
<inkscape:perspective
   sodipodi:type="inkscape:persp3d"
   inkscape:vp_x="0 : 338.38501 : 1"
   inkscape:vp_y="0 : 1000 : 0"
   inkscape:vp_z="676.77124 : 338.38501 : 1"
   inkscape:persp3d-origin="338.38562 : 225.59001 : 1"
   id="perspective27913" />

		
		
		
		
		
		
		
	
		
		
		
		
		
		
		
		
		
		
		
		
	
			
			
			
			
			
		
			
			
			
			
			
			
		
			
			
			
			
			
		
			
			
			
			
			
			
			
			
			
			
		<inkscape:perspective
   sodipodi:type="inkscape:persp3d"
   inkscape:vp_x="0 : 270.7085 : 1"
   inkscape:vp_y="0 : 1000 : 0"
   inkscape:vp_z="541.41699 : 270.7085 : 1"
   inkscape:persp3d-origin="270.7085 : 180.47233 : 1"
   id="perspective23419" />
<inkscape:perspective
   sodipodi:type="inkscape:persp3d"
   inkscape:vp_x="0 : 338.38501 : 1"
   inkscape:vp_y="0 : 1000 : 0"
   inkscape:vp_z="676.77124 : 338.38501 : 1"
   inkscape:persp3d-origin="338.38562 : 225.59001 : 1"
   id="perspective3083" />

		
		
		
		
		
		
		
	
		
		
		
		
		
		
		
		
		
		
		
		
	
			
			
			
			
			
		
			
			
			
			
			
			
		
			
			
			
			
			
		
			
			
			
			
			
			
			
			
			
			
		<inkscape:perspective
   id="perspective8562"
   inkscape:persp3d-origin="0.5 : 0.33333333 : 1"
   inkscape:vp_z="1 : 0.5 : 1"
   inkscape:vp_y="0 : 1000 : 0"
   inkscape:vp_x="0 : 0.5 : 1"
   sodipodi:type="inkscape:persp3d" />
<inkscape:perspective
   id="perspective9337"
   inkscape:persp3d-origin="0.5 : 0.33333333 : 1"
   inkscape:vp_z="1 : 0.5 : 1"
   inkscape:vp_y="0 : 1000 : 0"
   inkscape:vp_x="0 : 0.5 : 1"
   sodipodi:type="inkscape:persp3d" />
<inkscape:perspective
   id="perspective12409"
   inkscape:persp3d-origin="270.7085 : 180.47233 : 1"
   inkscape:vp_z="541.41699 : 270.7085 : 1"
   inkscape:vp_y="0 : 1000 : 0"
   inkscape:vp_x="0 : 270.7085 : 1"
   sodipodi:type="inkscape:persp3d" />

		
		
		
		
		
		
		
	
		
		
		
		
		
		
		
		
		
		
		
		
	
			
			
			
			
			
		
			
			
			
			
			
			
		
			
			
			
			
			
		
			
			
			
			
			
			
			
			
			
			
		
		
		
		
		
		
		
		
	<inkscape:perspective
   id="perspective16301"
   inkscape:persp3d-origin="338.38562 : 225.59001 : 1"
   inkscape:vp_z="676.77124 : 338.38501 : 1"
   inkscape:vp_y="0 : 1000 : 0"
   inkscape:vp_x="0 : 338.38501 : 1"
   sodipodi:type="inkscape:persp3d" />

		
		
		
		
		
		
		
	
		
		
		
		
		
		
		
		
		
		
		
		
	
			
			
			
			
			
		
			
			
			
			
			
			
		
			
			
			
			
			
		
			
			
			
			
			
			
			
			
			
			
		<inkscape:perspective
   id="perspective37556"
   inkscape:persp3d-origin="338.38562 : 225.59001 : 1"
   inkscape:vp_z="676.77124 : 338.38501 : 1"
   inkscape:vp_y="0 : 1000 : 0"
   inkscape:vp_x="0 : 338.38501 : 1"
   sodipodi:type="inkscape:persp3d" />
<inkscape:perspective
   id="perspective51446"
   inkscape:persp3d-origin="270.70999 : 180.47333 : 1"
   inkscape:vp_z="541.41998 : 270.70999 : 1"
   inkscape:vp_y="0 : 1000 : 0"
   inkscape:vp_x="0 : 270.70999 : 1"
   sodipodi:type="inkscape:persp3d" />
<inkscape:perspective
   id="perspective51596"
   inkscape:persp3d-origin="1417.3237 : 465.35417 : 1"
   inkscape:vp_z="2834.6475 : 698.03125 : 1"
   inkscape:vp_y="0 : 1000 : 0"
   inkscape:vp_x="0 : 698.03125 : 1"
   sodipodi:type="inkscape:persp3d" />
<inkscape:perspective
   sodipodi:type="inkscape:persp3d"
   inkscape:vp_x="0 : 0.5 : 1"
   inkscape:vp_y="0 : 1000 : 0"
   inkscape:vp_z="1 : 0.5 : 1"
   inkscape:persp3d-origin="0.5 : 0.33333333 : 1"
   id="perspective3982-8" />
<inkscape:perspective
   sodipodi:type="inkscape:persp3d"
   inkscape:vp_x="0 : 0.5 : 1"
   inkscape:vp_y="0 : 1000 : 0"
   inkscape:vp_z="1 : 0.5 : 1"
   inkscape:persp3d-origin="0.5 : 0.33333333 : 1"
   id="perspective3954-7" />
<inkscape:perspective
   sodipodi:type="inkscape:persp3d"
   inkscape:vp_x="0 : 0.5 : 1"
   inkscape:vp_y="0 : 1000 : 0"
   inkscape:vp_z="1 : 0.5 : 1"
   inkscape:persp3d-origin="0.5 : 0.33333333 : 1"
   id="perspective3926-6" />
<inkscape:perspective
   sodipodi:type="inkscape:persp3d"
   inkscape:vp_x="0 : 0.5 : 1"
   inkscape:vp_y="0 : 1000 : 0"
   inkscape:vp_z="1 : 0.5 : 1"
   inkscape:persp3d-origin="0.5 : 0.33333333 : 1"
   id="perspective3898-4" />
<inkscape:perspective
   sodipodi:type="inkscape:persp3d"
   inkscape:vp_x="0 : 0.5 : 1"
   inkscape:vp_y="0 : 1000 : 0"
   inkscape:vp_z="1 : 0.5 : 1"
   inkscape:persp3d-origin="0.5 : 0.33333333 : 1"
   id="perspective3861-3" />
<inkscape:perspective
   sodipodi:type="inkscape:persp3d"
   inkscape:vp_x="0 : 0.5 : 1"
   inkscape:vp_y="0 : 1000 : 0"
   inkscape:vp_z="1 : 0.5 : 1"
   inkscape:persp3d-origin="0.5 : 0.33333333 : 1"
   id="perspective3829-8" />
<inkscape:perspective
   sodipodi:type="inkscape:persp3d"
   inkscape:vp_x="0 : 0.5 : 1"
   inkscape:vp_y="0 : 1000 : 0"
   inkscape:vp_z="1 : 0.5 : 1"
   inkscape:persp3d-origin="0.5 : 0.33333333 : 1"
   id="perspective3704-5-0" />
<inkscape:perspective
   sodipodi:type="inkscape:persp3d"
   inkscape:vp_x="0 : 0.5 : 1"
   inkscape:vp_y="0 : 1000 : 0"
   inkscape:vp_z="1 : 0.5 : 1"
   inkscape:persp3d-origin="0.5 : 0.33333333 : 1"
   id="perspective3704-0-9" />
<inkscape:perspective
   sodipodi:type="inkscape:persp3d"
   inkscape:vp_x="0 : 0.5 : 1"
   inkscape:vp_y="0 : 1000 : 0"
   inkscape:vp_z="1 : 0.5 : 1"
   inkscape:persp3d-origin="0.5 : 0.33333333 : 1"
   id="perspective3704-9-4" />
<inkscape:perspective
   sodipodi:type="inkscape:persp3d"
   inkscape:vp_x="0 : 0.5 : 1"
   inkscape:vp_y="0 : 1000 : 0"
   inkscape:vp_z="1 : 0.5 : 1"
   inkscape:persp3d-origin="0.5 : 0.33333333 : 1"
   id="perspective3704-3" />
<inkscape:perspective
   sodipodi:type="inkscape:persp3d"
   inkscape:vp_x="0 : 0.5 : 1"
   inkscape:vp_y="0 : 1000 : 0"
   inkscape:vp_z="1 : 0.5 : 1"
   inkscape:persp3d-origin="0.5 : 0.33333333 : 1"
   id="perspective3672-2" />
<inkscape:perspective
   sodipodi:type="inkscape:persp3d"
   inkscape:vp_x="0 : 0.5 : 1"
   inkscape:vp_y="0 : 1000 : 0"
   inkscape:vp_z="1 : 0.5 : 1"
   inkscape:persp3d-origin="0.5 : 0.33333333 : 1"
   id="perspective3625-3" />
<inkscape:perspective
   id="perspective10-1"
   inkscape:persp3d-origin="372.04724 : 350.78739 : 1"
   inkscape:vp_z="744.09448 : 526.18109 : 1"
   inkscape:vp_y="0 : 1000 : 0"
   inkscape:vp_x="0 : 526.18109 : 1"
   sodipodi:type="inkscape:persp3d" />
</defs>
  <sodipodi:namedview
     inkscape:document-units="mm"
     id="base"
     pagecolor="#ffffff"
     bordercolor="#666666"
     borderopacity="1.0"
     inkscape:pageopacity="0.0"
     inkscape:pageshadow="2"
     inkscape:zoom="2.8"
     inkscape:cx="112.09836"
     inkscape:cy="104.11269"
     inkscape:current-layer="layer1"
     showgrid="false"
     units="mm"
     inkscape:window-width="1662"
     inkscape:window-height="1027"
     inkscape:window-x="80"
     inkscape:window-y="61"
     inkscape:window-maximized="0" />
  <metadata
     id="metadata4">
    <rdf:RDF>
      <cc:Work
         rdf:about="">
        <dc:format>image/svg+xml</dc:format>
        <dc:type
           rdf:resource="http://purl.org/dc/dcmitype/StillImage" />
        <dc:title></dc:title>
      </cc:Work>
    </rdf:RDF>
  </metadata>
  <g
     inkscape:groupmode="layer"
     id="layer10"
     inkscape:label="squares"
     style="display:none"
     sodipodi:insensitive="true">
    <path
       style="fill:#333333;stroke:none"
       d="m 5,907.375 0,140 140,0 0,-140 -140,0 z m 5,5 40,0 0,40 -40,0 0,-40 z m 45,0 40,0 0,40 -40,0 0,-40 z m 45,0 40,0 0,40 -40,0 0,-40 z m -90,45 40,0 0,40 -40,0 0,-40 z m 45,0 40,0 0,40 -40,0 0,-40 z m 45,0 40,0 0,40 -40,0 0,-40 z m -90,45 40,0 0,40 -40,0 0,-40 z m 45,0 40,0 0,40 -40,0 0,-40 z m 45,0 40,0 0,40 -40,0 0,-40 z"
       id="rect23054"
       inkscape:connector-curvature="0" />
    <path
       inkscape:connector-curvature="0"
       id="rect23762"
       d="m 0,902.36218 0,150.00002 150,0 0,-150.00002 -150,0 z m 5,5 140,0 0,140.00002 -140,0 0,-140.00002 z"
       style="fill:#808080;stroke:none" />
    <g
       id="g23820"
       transform="translate(-256.58017,241.42717)">
      <rect
         style="fill:#6d4280;fill-opacity:1;stroke:none"
         id="rect23767"
         width="40.000031"
         height="40.000027"
         x="356.5787"
         y="760.93567"
         inkscape:export-filename="/home/zzorn/documents/helsinki_hacklab_logo_gray.png"
         inkscape:export-xdpi="66.201981"
         inkscape:export-ydpi="66.201981" />
      <rect
         style="fill:#8d6e38;fill-opacity:1;stroke:none"
         id="rect23769"
         width="40.000034"
         height="40.000118"
         x="311.5787"
         y="760.93542"
         inkscape:export-filename="/home/zzorn/documents/helsinki_hacklab_logo_gray.png"
         inkscape:export-xdpi="66.201981"
         inkscape:export-ydpi="66.201981" />
      <rect
         style="fill:#a05229;fill-opacity:1;stroke:none"
         id="rect23771"
         width="40.000011"
         height="40.00013"
         x="266.56876"
         y="760.93567"
         inkscape:export-filename="/home/zzorn/documents/helsinki_hacklab_logo_gray.png"
         inkscape:export-xdpi="66.201981"
         inkscape:export-ydpi="66.201981" />
      <rect
         style="fill:#a6a437;fill-opacity:1;stroke:none"
         id="rect23773"
         width="40"
         height="40"
         x="266.57874"
         y="715.93561"
         inkscape:export-filename="/home/zzorn/documents/helsinki_hacklab_logo_gray.png"
         inkscape:export-xdpi="66.201981"
         inkscape:export-ydpi="66.201981" />
      <rect
         style="fill:#3f838d;fill-opacity:1;stroke:none"
         id="rect23775"
         width="40.000015"
         height="40.000011"
         x="266.57874"
         y="670.93561"
         inkscape:export-filename="/home/zzorn/documents/helsinki_hacklab_logo_gray.png"
         inkscape:export-xdpi="66.201981"
         inkscape:export-ydpi="66.201981" />
      <rect
         style="fill:#485a86;fill-opacity:1;stroke:none"
         id="rect23777"
         width="39.999981"
         height="40.00016"
         x="356.57874"
         y="670.93561"
         inkscape:export-filename="/home/zzorn/documents/helsinki_hacklab_logo_gray.png"
         inkscape:export-xdpi="66.201981"
         inkscape:export-ydpi="66.201981" />
      <rect
         style="fill:#8f3d54;fill-opacity:1;stroke:none"
         id="rect23779"
         width="40.000004"
         height="40"
         x="311.57874"
         y="670.93561"
         inkscape:export-filename="/home/zzorn/documents/helsinki_hacklab_logo_gray.png"
         inkscape:export-xdpi="66.201981"
         inkscape:export-ydpi="66.201981" />
      <rect
         style="fill:#537a45;fill-opacity:1;stroke:none"
         id="rect23781"
         width="40"
         height="40"
         x="311.57874"
         y="715.93561"
         inkscape:export-filename="/home/zzorn/documents/helsinki_hacklab_logo_gray.png"
         inkscape:export-xdpi="66.201981"
         inkscape:export-ydpi="66.201981" />
      <rect
         style="fill:#666666;fill-opacity:1;stroke:none"
         id="rect23783"
         width="40"
         height="40"
         x="356.57874"
         y="715.93561"
         inkscape:export-filename="/home/zzorn/documents/helsinki_hacklab_logo_gray.png"
         inkscape:export-xdpi="66.201981"
         inkscape:export-ydpi="66.201981" />
    </g>
  </g>
  <g
     inkscape:groupmode="layer"
     id="layer11"
     inkscape:label="squares-circuit"
     style="display:inline"
     sodipodi:insensitive="true">
    <path
       style="fill:#333333;stroke:none;display:inline"
       d="m 5,907.375 0,140 140,0 0,-140 -140,0 z m 5,5 40,0 0,40 -40,0 0,-40 z m 45,0 40,0 0,35.71875 9.28125,9.28125 35.71875,0 0,40 -17.0625,0 0,5 17.0625,0 0,40 -40,0 0,-17.1875 -5,0 0,17.1875 -40,0 0,-40 40,0 0,16.875 5,0 0,-12.8125 -9.09375,-9.0625 -31.65625,0 -9.25,9.2188 0,35.7812 -40,0 0,-40 35.90625,0 L 55,993.28125 55,957.375 l 40,0 0,35.46875 9.4375,9.53125 12.4375,0 0,-5 -16.875,0 0,-35.8125 -9.1875,-9.1875 -35.8125,0 0,-40 z m 45,0 40,0 0,40 -40,0 0,-40 z m -90,45 40,0 0,40 -40,0 0,-40 z"
       id="path23832"
       inkscape:connector-curvature="0" />
    <path
       style="fill:#808080;stroke:none;display:inline"
       d="m 0,902.36218 0,150.00002 150,0 0,-150.00002 -150,0 z m 5,5 140,0 0,140.00002 -140,0 0,-140.00002 z"
       id="path23834"
       inkscape:connector-curvature="0" />
    <path
       style="fill:#6d4280;fill-opacity:1;stroke:none"
       d="m 104.4375,1002.375 7.46875,7.5312 c 1.49252,-0.9629 3.17347,-1.6737 4.96875,-2.0624 l 0,-5.4688 -12.4375,0 z m 18.5,0 0,5.4062 c 6.86247,1.359 12.03125,7.4271 12.03125,14.6876 0,8.2598 -6.7089,14.9374 -14.96875,14.9374 -7.32329,0 -13.36785,-5.2677 -14.65625,-12.2187 l -5.34375,0 0,17.1875 40,0 0,-40 -17.0625,0 z m -22.9375,4.0625 0,12.8125 5.40625,0 c 0.43338,-1.9443 1.23492,-3.7591 2.34375,-5.3438 L 107.5625,1014 100,1006.4375 z m 20,8.9687 c -3.87663,10e-5 -7,3.1555 -7,7.0313 0,3.8759 3.12337,7 7,7 3.87662,0 7.03125,-3.1241 7.03125,-7 0,-3.8758 -3.15463,-7.0313 -7.03125,-7.0313 z"
       id="rect23838"
       inkscape:connector-curvature="0" />
    <path
       style="fill:#8d6e38;fill-opacity:1;stroke:none"
       d="m 55,1002.375 0,40 40,0 0,-17.1875 -5.1875,0 c -1.287959,6.9514 -7.36382,12.2187 -14.6875,12.2187 -8.259849,1e-4 -14.9375,-6.6775 -14.9375,-14.9374 0,-8.26 6.677651,-14.9688 14.9375,-14.9688 7.158839,0 13.124943,5.0308 14.59375,11.75 l 5.28125,0 0,-16.875 -40,0 z m 20.125,13.0312 c -3.876625,10e-5 -7,3.1555 -7,7.0313 0,3.8759 3.123375,7 7,7 3.876625,0 7.03125,-3.1241 7.03125,-7 0,-3.8758 -3.154625,-7.0313 -7.03125,-7.0313 z"
       id="rect23840"
       inkscape:connector-curvature="0" />
    <path
       style="fill:#a05229;fill-opacity:1;stroke:none"
       d="m 10,1002.375 0,40 40,0 0,-35.7812 -7.40625,7.4062 c 1.651589,2.4056 2.625,5.3312 2.625,8.4688 0,8.2597 -6.708901,14.9374 -14.96875,14.9374 -8.259848,0 -14.9375,-6.6777 -14.9375,-14.9374 0,-8.26 6.677652,-14.9688 14.9375,-14.9688 2.993063,0 5.786254,0.8914 8.125,2.4062 l 7.53125,-7.5312 -35.90625,0 z m 20.25,13.0312 c -3.876624,10e-5 -7,3.1555 -7,7.0313 0,3.8759 3.123376,7 7,7 3.876625,0 7.03125,-3.1241 7.03125,-7 0,-3.8758 -3.154625,-7.0313 -7.03125,-7.0313 z"
       id="rect23842"
       inkscape:connector-curvature="0" />
    <rect
       style="fill:#a6a437;fill-opacity:1;stroke:none"
       id="rect23844"
       width="40"
       height="40"
       x="9.9985657"
       y="957.36279"
       inkscape:export-filename="/home/zzorn/documents/helsinki_hacklab_logo_gray.png"
       inkscape:export-xdpi="66.201981"
       inkscape:export-ydpi="66.201981" />
    <rect
       style="fill:#3f838d;fill-opacity:1;stroke:none"
       id="rect23846"
       width="40.000015"
       height="40.000011"
       x="9.9985657"
       y="912.36279"
       inkscape:export-filename="/home/zzorn/documents/helsinki_hacklab_logo_gray.png"
       inkscape:export-xdpi="66.201981"
       inkscape:export-ydpi="66.201981" />
    <rect
       style="fill:#485a86;fill-opacity:1;stroke:none"
       id="rect23848"
       width="39.999981"
       height="40.00016"
       x="99.998566"
       y="912.36279"
       inkscape:export-filename="/home/zzorn/documents/helsinki_hacklab_logo_gray.png"
       inkscape:export-xdpi="66.201981"
       inkscape:export-ydpi="66.201981" />
    <path
       style="fill:#8f3d54;fill-opacity:1;stroke:none"
       d="m 55,912.375 0,40 35.8125,0 -7.5,-7.5 c -2.350534,1.53786 -5.169775,2.4375 -8.1875,2.4375 -8.259849,0 -14.9375,-6.67765 -14.9375,-14.9375 0,-8.25985 6.677651,-14.96875 14.9375,-14.96875 8.259848,0 14.96875,6.7089 14.96875,14.96875 0,3.06643 -0.916286,5.9079 -2.5,8.28125 L 95,948.09375 95,912.375 l -40,0 z m 20.125,12.9375 c -3.876625,0 -7,3.15539 -7,7.03125 0,3.87585 3.123375,7 7,7 3.876625,0 7.03125,-3.12415 7.03125,-7 0,-3.87586 -3.154625,-7.03125 -7.03125,-7.03125 z"
       id="rect23850"
       inkscape:connector-curvature="0" />
    <path
       style="fill:#537a45;fill-opacity:1;stroke:none"
       d="m 55,957.375 0,35.90625 6.4375,-6.4375 27.84375,0.21875 5.71875,5.78125 0,-35.46875 -40,0 z m 8.8125,35.4375 -4.5625,4.5625 31.65625,0 -4.46875,-4.46875 -22.625,-0.0937 z"
       id="rect23852"
       inkscape:connector-curvature="0" />
    <path
       style="fill:#666666;fill-opacity:1;stroke:none"
       d="m 104.28125,957.375 7.625,7.65625 c 2.3378,-1.51301 5.10265,-2.40625 8.09375,-2.40625 8.25985,0 14.96875,6.7089 14.96875,14.96875 0,7.24871 -5.18539,13.25316 -12.03125,14.625 l 0,5.15625 17.0625,0 0,-40 -35.71875,0 z M 100,961.5625 l 0,35.8125 16.875,0 0,-5.1875 c -6.75232,-1.4438 -11.8125,-7.41139 -11.8125,-14.59375 0,-3.09744 0.9493,-5.98743 2.5625,-8.375 0.005,-0.007 -0.005,-0.0243 0,-0.0312 L 100,961.5625 z m 20,8.96875 c -3.87663,0 -7,3.1554 -7,7.03125 0,3.87586 3.12337,7 7,7 3.87662,0 7.03125,-3.12414 7.03125,-7 0,-3.87585 -3.15463,-7.03125 -7.03125,-7.03125 z"
       id="rect23854"
       inkscape:connector-curvature="0" />
  </g>
  <g
     inkscape:label="circuit"
     inkscape:groupmode="layer"
     id="layer1"
     style="display:inline"
     sodipodi:insensitive="true">
    <path
       inkscape:connector-curvature="0"
       id="path22464"
       d="m 75.135637,917.40118 c -8.259849,0 -14.95923,6.69938 -14.95923,14.95923 0,8.25985 6.699381,14.95923 14.95923,14.95923 3.017725,0 5.814712,-0.89301 8.165246,-2.43087 l 24.308747,24.30875 c -0.005,0.007 0.005,0.0243 0,0.0311 -1.6132,2.38757 -2.55553,5.2548 -2.55553,8.35224 0,7.18236 5.05924,13.17261 11.81156,14.61641 l 0,15.64483 c -1.79528,0.3888 -3.46273,1.094 -4.95525,2.0569 L 89.284575,987.05505 61.423009,986.83689 38.360863,1009.899 c -2.338746,-1.5148 -5.109854,-2.3997 -8.102917,-2.3997 -8.259848,0 -14.95923,6.6994 -14.95923,14.9593 0,8.2598 6.699382,14.9592 14.95923,14.9592 8.259849,0 14.959231,-6.6994 14.959231,-14.9592 0,-3.1375 -0.966277,-6.0402 -2.617866,-8.4458 l 21.223408,-21.19222 22.625836,0.0935 21.098745,21.09872 0.21816,-0.093 c -1.10883,1.5847 -1.93517,3.385 -2.36855,5.3293 l -15.676024,0 c -1.468807,-6.7192 -7.42641,-11.7493 -14.585249,-11.7493 -8.259849,0 -14.95923,6.6994 -14.95923,14.9593 0,8.2599 6.699381,14.9593 14.95923,14.9593 7.32368,0 13.390785,-5.2653 14.678744,-12.2167 l 15.520199,0 c 1.2884,6.951 7.35546,12.2167 14.67875,12.2167 8.25985,0 14.95923,-6.6994 14.95923,-14.9593 0,-7.2605 -5.16725,-13.3199 -12.02972,-14.6788 l 0,-15.5513 c 6.84586,-1.37184 12.02972,-7.39887 12.02972,-14.64758 0,-8.25985 -6.69938,-14.95923 -14.95923,-14.95923 -2.9911,0 -5.76512,0.8867 -8.10292,2.39971 L 87.601662,940.65027 c 1.583714,-2.37335 2.493205,-5.22348 2.493205,-8.28991 0,-8.25985 -6.699382,-14.95923 -14.95923,-14.95923 z m 0,7.91593 c 3.876625,0 7.012139,3.13628 7.012139,7.01214 0,3.87585 -3.135514,7.01214 -7.012139,7.01214 -3.876625,0 -7.012139,-3.13629 -7.012139,-7.01214 0,-3.87586 3.135514,-7.01214 7.012139,-7.01214 z m 44.877693,45.2205 c 3.87662,0 7.01214,3.13629 7.01214,7.01214 0,3.87586 -3.13552,7.01214 -7.01214,7.01214 -3.87663,0 -7.01214,-3.13628 -7.01214,-7.01214 0,-3.87585 3.13551,-7.01214 7.01214,-7.01214 z m -89.755384,44.87769 c 3.876625,0 7.01214,3.1363 7.01214,7.0121 0,3.8759 -3.135515,7.0122 -7.01214,7.0122 -3.876624,0 -7.012139,-3.1363 -7.012139,-7.0122 0,-3.8758 3.135515,-7.0121 7.012139,-7.0121 z m 44.877691,0 c 3.876625,0 7.012139,3.1363 7.012139,7.0121 0,3.8759 -3.135514,7.0122 -7.012139,7.0122 -3.876625,0 -7.012139,-3.1363 -7.012139,-7.0122 0,-3.8758 3.135514,-7.0121 7.012139,-7.0121 z m 44.877693,0 c 3.87662,0 7.01214,3.1363 7.01214,7.0121 0,3.8759 -3.13552,7.0122 -7.01214,7.0122 -3.87663,0 -7.01214,-3.1363 -7.01214,-7.0122 0,-3.8758 3.13551,-7.0121 7.01214,-7.0121 z"
       style="fill:#ffa000;fill-opacity:1;stroke:none" />
  </g>
</svg>
