<?xml version="1.0" encoding="UTF-8" standalone="no"?>
<!-- Created with Inkscape (http://www.inkscape.org/) -->

<svg
   xmlns:dc="http://purl.org/dc/elements/1.1/"
   xmlns:cc="http://creativecommons.org/ns#"
   xmlns:rdf="http://www.w3.org/1999/02/22-rdf-syntax-ns#"
   xmlns:svg="http://www.w3.org/2000/svg"
   xmlns="http://www.w3.org/2000/svg"
   xmlns:sodipodi="http://sodipodi.sourceforge.net/DTD/sodipodi-0.dtd"
   xmlns:inkscape="http://www.inkscape.org/namespaces/inkscape"
   id="svg3336"
   version="1.1"
   inkscape:version="0.91 r13725"
   xml:space="preserve"
   width="1200mm"
   height="400mm"
   viewBox="0 0 4251.9684 1417.3228"
   sodipodi:docname="kylttilogo.svg"><metadata
     id="metadata3342"><rdf:RDF><cc:Work
         rdf:about=""><dc:format>image/svg+xml</dc:format><dc:type
           rdf:resource="http://purl.org/dc/dcmitype/StillImage" /><dc:title></dc:title></cc:Work></rdf:RDF></metadata><defs
     id="defs3340"><clipPath
       clipPathUnits="userSpaceOnUse"
       id="clipPath3350"><path
         d="m 0,710.445 466.138,0 L 466.138,0 0,0 0,710.445 Z"
         id="path3352"
         inkscape:connector-curvature="0" /></clipPath></defs><sodipodi:namedview
     pagecolor="#ffffff"
     bordercolor="#666666"
     borderopacity="1"
     objecttolerance="10"
     gridtolerance="10"
     guidetolerance="10"
     inkscape:pageopacity="0"
     inkscape:pageshadow="2"
     inkscape:window-width="1387"
     inkscape:window-height="992"
     id="namedview3338"
     showgrid="false"
     units="mm"
     inkscape:zoom="0.27250525"
     inkscape:cx="1782.1343"
     inkscape:cy="944.4809"
     inkscape:window-x="158"
     inkscape:window-y="48"
     inkscape:window-maximized="0"
     inkscape:current-layer="g3344" /><g
     id="g3344"
     inkscape:groupmode="layer"
     inkscape:label="logo_kalvo_tekstilla"
     transform="matrix(1.25,0,0,-1.25,0,1417.3228)"><g
       id="g4385"
       transform="translate(58.110236,0)"><path
         inkscape:connector-curvature="0"
         id="path3354"
         style="fill:#000000;fill-opacity:1;fill-rule:nonzero;stroke:none"
         d="m 913.56401,718.7838 -242.9672,0 0,242.96731 242.9672,0 0,-242.96731 z m 0,-273.3403 -103.6067,0 0,31.2614 c 41.5808,8.3301 73.0695,44.9406 73.0695,88.9634 0,50.1761 -40.6924,90.8685 -90.8622,90.8685 -18.1716,0 -35.0212,-5.3892 -49.2204,-14.5676 l -46.33,46.4437 216.9498,0 0,-242.9694 z m 0,-273.3423 -242.9672,0 0,104.3204 32.4002,0 c 7.8291,-42.2292 44.6775,-74.2105 89.1676,-74.2105 50.1698,0 90.8622,40.6924 90.8622,90.8685 0,44.0943 -31.3856,80.909 -73.0695,89.1528 l 0,32.8423 103.6067,0 0,-242.9735 z m -351.4074,121.1636 c 0,-23.5439 -19.0452,-42.5849 -42.5912,-42.5849 -23.5482,0 -42.5934,19.0515 -42.5934,42.5849 0,23.5355 19.0452,42.5913 42.5934,42.5913 23.546,0 42.5912,-19.0558 42.5912,-42.5913 M 397.2566,172.1012 l 0,242.9735 242.96931,0 0,-102.5015 -32.0677,0 c -8.9195,40.8208 -45.1132,71.3623 -88.5928,71.3623 -50.1719,0 -90.8706,-40.6904 -90.8706,-90.8559 0,-50.1761 40.6987,-90.8685 90.8706,-90.8685 44.4859,0 81.3364,31.975 89.1591,74.2105 l 31.5014,0 0,-104.3204 -242.96931,0 z M 289.56163,293.2648 c 0,-23.5439 -19.04945,-42.5849 -42.59547,-42.5849 -23.54814,0 -42.59548,19.0515 -42.59548,42.5849 0,23.5355 19.04734,42.5913 42.59548,42.5913 23.54602,0 42.59547,-19.0558 42.59547,-42.5913 m -165.64742,-121.1636 0,242.9735 217.97918,0 -45.70899,-45.7153 c -14.2055,9.2121 -31.03823,14.5761 -49.21824,14.5761 -50.1761,0 -90.86852,-40.6904 -90.86852,-90.8559 0,-50.1761 40.69242,-90.8685 90.86852,-90.8685 50.17187,0 90.8643,40.6924 90.8643,90.8685 0,19.0536 -5.86914,36.6884 -15.90225,51.2981 l 44.95529,44.8943 0,-217.1708 -242.96929,0 z m 0,516.3117 242.96929,0 0,-242.9694 -242.96929,0 0,242.9694 z m 0,273.33821 242.96929,0 0,-242.96731 -242.96929,0 0,242.96731 z m 497.0475,-521.89251 -5.606,5.5849 -192.2122,0 27.7016,27.6679 137.4364,-0.571 32.6802,-32.6823 z m 19.2642,248.5543 0,-215.333 -34.7159,35.0506 -169.243,1.3178 -39.01041,-39.0146 0,217.9792 242.96931,0 z m -78.0693,152.13031 c 0,-23.5355 -19.0452,-42.5871 -42.5912,-42.5871 -23.5482,0 -42.5934,19.0516 -42.5934,42.5871 0,23.5523 19.0452,42.5849 42.5934,42.5849 23.546,0 42.5912,-19.0326 42.5912,-42.5849 m 230.008,-317.27881 c -23.5524,0 -42.5997,19.0557 -42.5997,42.5996 0,23.544 19.0473,42.585 42.5997,42.585 23.546,0 42.5913,-19.041 42.5913,-42.585 0,-23.5439 -19.0453,-42.5996 -42.5913,-42.5996 m 0,-187.4083 c 23.546,0 42.5913,-19.0558 42.5913,-42.5913 0,-23.5439 -19.0453,-42.5849 -42.5913,-42.5849 -23.5524,0 -42.5997,19.0515 -42.5997,42.5849 0,23.5355 19.0473,42.5913 42.5997,42.5913 m -94.4936,79.2186 75.3726,0 0,-33.2065 c -10.9068,-2.362 -21.0367,-6.6586 -30.0994,-12.5088 l -45.2732,45.7153 z m -27.0742,-24.8533 45.8458,-45.8437 1.3283,0.566 c -6.7406,-9.6163 -11.7572,-20.5567 -14.3907,-32.3708 l -32.7834,0 0,77.6482 z m 102.4468,86.6772 0,-31.4551 -102.4468,0 0,217.3835 46.2247,-46.2206 c -0.03,-0.05 0.03,-0.156 0,-0.198 -9.8015,-14.5086 -15.5212,-31.9224 -15.5212,-50.7402 0,-43.6228 30.7246,-80.0081 71.7433,-88.7697 m -375.78701,484.85251 242.96931,0 0,-216.8025 -44.9448,45.0564 c 9.6268,14.4139 15.1507,31.7182 15.1507,50.3508 0,50.1656 -40.6945,90.858 -90.8664,90.858 -50.1719,0 -90.8706,-40.6924 -90.8706,-90.858 0,-50.1761 40.6987,-90.8685 90.8706,-90.8685 18.3316,0 35.318,5.4186 49.5951,14.7739 l 45.4731,-45.47741 -217.37701,0 0,242.96731 z M 93.543307,141.7323 l 850.393703,0 0,850.39171 -850.393703,0 0,-850.39171 z" /><g
         transform="matrix(1.4421178,0,0,1.4421178,-463.70153,-430.57275)"
         id="g3551"><g
           id="g3463"
           transform="matrix(3.8094057,0,0,3.8094057,600.38271,-678.60222)"><g
             transform="translate(117.71815,365.4289)"
             id="g3356"><path
               inkscape:connector-curvature="0"
               id="path3358"
               style="fill:#000000;fill-opacity:1;fill-rule:nonzero;stroke:none"
               d="m 0,0 0,71.683 13.288,0 0,-28.906 25.609,0 0,28.906 13.29,0 0,-71.683 -13.29,0 0,30.07 -25.609,0 L 13.288,0 0,0 Z" /></g><g
             transform="translate(193.57165,397.924)"
             id="g3360"><path
               inkscape:connector-curvature="0"
               id="path3362"
               style="fill:#000000;fill-opacity:1;fill-rule:nonzero;stroke:none"
               d="M 0,0 29.778,0 C 28.29,6.337 24.153,9.86 17.362,10.573 16.587,10.637 15.777,10.67 14.938,10.67 7.501,10.67 2.65,7.469 0.388,1.066 0.257,0.742 0.128,0.388 0,0 m 42.001,-11.349 -41.613,0 c 1.164,-4.787 4.137,-7.988 8.924,-9.603 1.81,-0.648 3.783,-0.97 5.917,-0.97 4.397,0 7.954,1.358 10.67,4.074 0.387,0.388 0.776,0.808 1.164,1.261 l 14.065,0 c -0.776,-2.393 -2.199,-4.884 -4.268,-7.469 -5.627,-6.467 -12.74,-9.7 -21.34,-9.7 -8.537,0 -15.65,2.91 -21.34,8.73 -5.175,5.301 -7.76,11.704 -7.76,19.206 0,8.148 2.876,14.969 8.633,20.466 5.432,5.239 11.995,7.858 19.69,7.858 8.537,0 15.455,-3.04 20.759,-9.118 4.655,-5.368 6.983,-11.964 6.983,-19.788 0,-1.746 -0.162,-3.395 -0.484,-4.947" /></g><path
             inkscape:connector-curvature="0"
             id="path3364"
             style="fill:#000000;fill-opacity:1;fill-rule:nonzero;stroke:none"
             d="m 244.39835,437.1112 12.902,0 0,-71.683 -12.902,0 0,71.683 z" /><g
             transform="translate(264.28355,382.5012)"
             id="g3366"><path
               inkscape:connector-curvature="0"
               id="path3368"
               style="fill:#000000;fill-opacity:1;fill-rule:nonzero;stroke:none"
               d="m 0,0 12.998,0 c 1.1,-3.945 3.104,-6.079 6.014,-6.402 0.388,-0.066 0.776,-0.097 1.164,-0.097 2.651,0 4.429,1.033 5.336,3.103 0.322,0.711 0.484,1.422 0.484,2.134 0,1.746 -0.808,3.137 -2.425,4.172 C 22.536,3.556 20.305,4.462 16.879,5.626 9.376,8.147 4.754,11.51 3.008,15.714 2.295,17.395 1.94,19.335 1.94,21.534 c 0,5.301 2.198,9.57 6.596,12.804 3.234,2.391 6.984,3.589 11.252,3.589 5.626,0 10.217,-1.974 13.775,-5.917 2.391,-2.653 3.685,-6.048 3.879,-10.185 l -12.61,0 c -0.582,2.845 -2.264,4.268 -5.044,4.268 -2.265,0 -3.816,-0.939 -4.655,-2.814 l -0.291,-1.745 c 0,-1.617 0.873,-2.813 2.619,-3.59 0.839,-0.387 3.006,-1.131 6.498,-2.23 4.785,-1.488 8.083,-3.007 9.895,-4.56 3.361,-2.652 5.043,-6.37 5.043,-11.154 0,-5.82 -2.295,-10.541 -6.887,-14.162 -3.492,-2.781 -7.6,-4.171 -12.319,-4.171 -6.013,0 -10.929,1.939 -14.744,5.819 -0.518,0.518 -0.97,1.068 -1.357,1.65 C 1.713,-8.342 0.518,-4.722 0,0" /></g><path
             inkscape:connector-curvature="0"
             id="path3370"
             style="fill:#000000;fill-opacity:1;fill-rule:nonzero;stroke:none"
             d="m 310.35735,419.1672 12.9,0 0,-53.738 -12.9,0 0,53.738 z m 0,17.944 12.9,0 0,-12.125 -12.9,0 0,12.125 z" /><g
             transform="translate(333.63705,365.4289)"
             id="g3372"><path
               inkscape:connector-curvature="0"
               id="path3374"
               style="fill:#000000;fill-opacity:1;fill-rule:nonzero;stroke:none"
               d="m 0,0 0,53.738 11.931,0 0,-5.141 c 4.137,3.944 8.632,6.078 13.483,6.402 l 1.649,0 c 7.629,0 13.223,-2.587 16.781,-7.76 2.262,-3.298 3.523,-8.051 3.783,-14.259 0.063,-1.229 0.097,-2.619 0.097,-4.171 l 0,-28.809 -12.902,0 0,26.287 c 0,6.725 -0.841,11.219 -2.521,13.483 -1.746,2.263 -4.333,3.395 -7.76,3.395 -4.268,0 -7.437,-1.649 -9.506,-4.947 -1.358,-2.199 -2.07,-6.079 -2.135,-11.64 l 0,-1.261 L 12.9,0 0,0 Z" /></g><g
             transform="translate(391.83625,365.4289)"
             id="g3376"><path
               inkscape:connector-curvature="0"
               id="path3378"
               style="fill:#000000;fill-opacity:1;fill-rule:nonzero;stroke:none"
               d="m 0,0 0,71.683 12.9,0 0,-43.262 17.169,25.317 15.424,0 L 26.287,27.451 48.597,0 31.233,0 12.9,25.123 12.9,0 0,0 Z" /></g><path
             inkscape:connector-curvature="0"
             id="path3380"
             style="fill:#000000;fill-opacity:1;fill-rule:nonzero;stroke:none"
             d="m 448.09535,419.1672 12.9,0 0,-53.738 -12.9,0 0,53.738 z m 0,17.944 12.9,0 0,-12.125 -12.9,0 0,12.125 z" /></g><g
           id="g3478"
           transform="matrix(3.8094057,0,0,3.8094057,684.08181,-546.99689)"><g
             transform="translate(95.746454,249.0285)"
             id="g3382"><path
               inkscape:connector-curvature="0"
               id="path3384"
               style="fill:#000000;fill-opacity:1;fill-rule:nonzero;stroke:none"
               d="m 0,0 0,71.683 13.289,0 0,-28.906 25.607,0 0,28.906 13.29,0 0,-71.683 -13.29,0 0,30.07 -25.607,0 L 13.289,0 0,0 Z" /></g><g
             transform="translate(186.73175,292.1936)"
             id="g3386"><path
               inkscape:connector-curvature="0"
               id="path3388"
               style="fill:#000000;fill-opacity:1;fill-rule:nonzero;stroke:none"
               d="m 0,0 c -5.691,0 -9.991,-2.265 -12.901,-6.79 -1.876,-2.847 -2.813,-6.176 -2.813,-9.991 0,-6.014 2.263,-10.445 6.79,-13.289 2.585,-1.682 5.626,-2.522 9.118,-2.522 5.108,0 9.021,1.615 11.737,4.85 2.392,3.233 3.685,6.919 3.881,11.058 0,6.143 -2.2,10.767 -6.597,13.871 C 6.563,-0.938 3.491,0 0,0 m 28.032,10.573 0,-53.738 -11.834,0 0,6.984 c -4.267,-4.85 -9.248,-7.566 -14.937,-8.148 -0.907,-0.064 -1.876,-0.097 -2.91,-0.097 -8.473,0 -15.294,3.007 -20.467,9.021 -4.399,5.173 -6.596,11.478 -6.596,18.915 0,8.924 2.974,16.102 8.924,21.534 5.044,4.525 11.187,6.79 18.43,6.79 7.047,0 12.642,-2.458 16.781,-7.372 0.258,-0.324 0.517,-0.679 0.775,-1.067 l 0,7.178 11.834,0 z" /></g><g
             transform="translate(262.87535,266.6828)"
             id="g3390"><path
               inkscape:connector-curvature="0"
               id="path3392"
               style="fill:#000000;fill-opacity:1;fill-rule:nonzero;stroke:none"
               d="m 0,0 14.551,0 c -3.235,-8.796 -8.862,-14.584 -16.879,-17.363 -3.04,-1.033 -6.305,-1.552 -9.797,-1.552 -8.147,0 -15.035,2.845 -20.66,8.536 -5.369,5.432 -8.051,11.963 -8.051,19.594 0,8.212 2.909,15.035 8.73,20.467 5.366,5.107 11.897,7.663 19.593,7.663 7.761,0 14.357,-2.523 19.788,-7.567 2.974,-2.781 5.205,-6.11 6.694,-9.99 0.193,-0.518 0.387,-1.067 0.582,-1.649 L 0,18.139 c -2.587,4.914 -6.758,7.372 -12.513,7.372 -5.561,0 -9.764,-2.232 -12.61,-6.694 -1.811,-2.715 -2.715,-5.884 -2.715,-9.505 0,-5.756 2.1,-10.218 6.305,-13.386 2.716,-2.005 5.82,-3.007 9.311,-3.007 4.98,0 8.988,2.23 12.029,6.692 C -0.13,-0.26 -0.064,-0.131 0,0" /></g><g
             transform="translate(285.76885,249.0285)"
             id="g3394"><path
               inkscape:connector-curvature="0"
               id="path3396"
               style="fill:#000000;fill-opacity:1;fill-rule:nonzero;stroke:none"
               d="m 0,0 0,71.683 12.901,0 0,-43.262 17.169,25.317 15.423,0 L 26.287,27.451 48.597,0 31.234,0 12.901,25.123 12.901,0 0,0 Z" /></g><path
             inkscape:connector-curvature="0"
             id="path3398"
             style="fill:#000000;fill-opacity:1;fill-rule:nonzero;stroke:none"
             d="m 342.02735,320.7112 12.901,0 0,-71.683 -12.901,0 0,71.683 z" /><g
             transform="translate(391.69075,292.1936)"
             id="g3400"><path
               inkscape:connector-curvature="0"
               id="path3402"
               style="fill:#000000;fill-opacity:1;fill-rule:nonzero;stroke:none"
               d="m 0,0 c -5.691,0 -9.991,-2.265 -12.901,-6.79 -1.876,-2.847 -2.813,-6.176 -2.813,-9.991 0,-6.014 2.263,-10.445 6.79,-13.289 2.585,-1.682 5.626,-2.522 9.118,-2.522 5.108,0 9.021,1.615 11.737,4.85 2.391,3.233 3.686,6.919 3.88,11.058 0,6.143 -2.2,10.767 -6.596,13.871 C 6.563,-0.938 3.492,0 0,0 m 28.033,10.573 0,-53.738 -11.834,0 0,6.984 c -4.268,-4.85 -9.249,-7.566 -14.938,-8.148 -0.907,-0.064 -1.876,-0.097 -2.91,-0.097 -8.472,0 -15.294,3.007 -20.467,9.021 -4.399,5.173 -6.596,11.478 -6.596,18.915 0,8.924 2.974,16.102 8.924,21.534 5.044,4.525 11.186,6.79 18.43,6.79 7.047,0 12.642,-2.458 16.781,-7.372 0.258,-0.324 0.516,-0.679 0.776,-1.067 l 0,7.178 11.834,0 z" /></g><g
             transform="translate(457.06775,292.8723)"
             id="g3404"><path
               inkscape:connector-curvature="0"
               id="path3406"
               style="fill:#000000;fill-opacity:1;fill-rule:nonzero;stroke:none"
               d="m 0,0 c -5.563,0 -9.798,-2.199 -12.707,-6.596 -1.94,-2.846 -2.91,-6.175 -2.91,-9.991 0,-6.144 2.197,-10.767 6.596,-13.871 2.65,-1.876 5.754,-2.813 9.312,-2.813 5.819,0 10.151,2.294 12.997,6.887 1.746,2.78 2.619,6.014 2.619,9.7 0,5.884 -2.134,10.443 -6.401,13.677 C 6.789,-1.003 3.62,0 0,0 m -27.742,-43.844 0,71.683 12.9,0 0,-22.892 c 4.138,4.138 8.925,6.403 14.357,6.79 0.711,0.064 1.486,0.097 2.328,0.097 8.147,0 14.841,-2.975 20.079,-8.924 4.655,-5.368 6.983,-11.867 6.983,-19.497 0,-7.309 -2.101,-13.677 -6.304,-19.108 -4.915,-6.274 -11.543,-9.409 -19.885,-9.409 -6.274,0 -11.512,1.777 -15.714,5.334 -0.971,0.84 -1.94,1.778 -2.91,2.813 l 0,-6.887 -11.834,0 z" /></g></g></g></g></g><g
     inkscape:groupmode="layer"
     id="layer1"
     inkscape:label="alumiinireuna"
     style="display:inline"><rect
       style="fill:none;fill-opacity:1;stroke:#505050;stroke-width:55.45301056;stroke-miterlimit:4;stroke-dasharray:none;stroke-opacity:1"
       id="rect4381"
       width="3346.1218"
       height="1078.4053"
       x="27.726505"
       y="-1106.132"
       transform="matrix(1.25,0,0,1.25,0,1417.3228)" /></g></svg>